<?xml version="1.0" encoding="UTF-8"?>
<svg id="Layer_1" data-name="Layer 1" xmlns="http://www.w3.org/2000/svg" version="1.1" viewBox="0 0 512 521">
  <defs>
    <style>
      .cls-1 {
        fill: #000;
      }

      .cls-1, .cls-2 {
        stroke-width: 0px;
      }

      .cls-2 {
        fill: #edc84b;
      }
    </style>
  </defs>
  <rect class="cls-2" x="6" y="10.5" width="500" height="500" rx="48" ry="48"/>
  <g id="layer1">
    <path id="path464" class="cls-1" d="M321.1,130.6h0s0,0,0,0c-.9,4.6-.9,9.4-.3,13.9-63.7,29.6-127.4,59.2-191.2,88.9-7.2,3.4-13.4,8.7-17.7,15.4,0,0,0,0,0,0-3.9,6.2-5.9,13.4-5.9,20.7,0,.2,0,.4,0,.6v28.2c0,12,9.9,21.8,21.9,21.8s8.4-2.4,12-5v17c0,12,9.9,21.8,21.9,21.8s21.8-9.8,21.8-21.8v-19.1s137.3,63.8,137.3,63.8c-.6,4.5-.6,9.3.3,13.9,5.2,18.7,22.4,22.1,38.6,18.1,8.5-2.2,16.5-7.5,20.9-16.2,0-.1.1-.2.2-.3,34.9-87.8,32.6-183.3,0-263.3-16.4-26.6-53.2-23.1-59.6,1.5h0ZM371.6,133.2c33.8,85.1,31.6,177.7,0,255.2-2.9,5.8-8.1,9.3-14.5,11-11.6,2.1-24,1.2-26.3-10.3-1-5.4-.4-12.2,1.2-16.7.4-1.3.8-2.5,1.2-3.8,7.1,2.4,15.2,3.2,23,1.8,2.7-.5,4.5-3,4-5.7-.5-2.7-3-4.5-5.7-4-6.1,1.1-12.7.3-18.2-1.5,2.4-8.1,4.8-17.3,6.6-25,7,2.7,15.2,3.7,23.2,2.6,2.7-.4,4.6-2.9,4.2-5.6-.4-2.7-2.9-4.6-5.6-4.2-6.8.9-14.2-.2-19.8-2.7,1.4-7.4,2.7-14.8,3.6-22.2,6.6,1.6,13.9,1.8,20.8.3,2.7-.6,4.3-3.2,3.8-5.9-.6-2.7-3.2-4.4-5.9-3.8-5.7,1.3-12.1.9-17.6-.6,2.2-23,1.8-46.4-.6-67.7,5.6-1.6,12.1-2.1,17.9-.9,2.7.6,5.3-1.1,5.9-3.8.6-2.7-1.1-5.3-3.8-5.9-7.1-1.5-14.5-1.2-21.2.6-1-7.3-2.3-14.7-3.8-22,5.5-2.7,13.1-4.1,20.1-3.2,2.7.3,5.2-1.6,5.5-4.3.3-2.7-1.6-5.2-4.3-5.5-8.1-1-16.5.2-23.5,3.2-2-8.3-4.3-16.6-7-24.9,5.5-2.2,12.6-3.2,19-2.2,2.7.4,5.2-1.5,5.6-4.1.4-2.7-1.5-5.2-4.2-5.6-8-1.2-16.3-.2-23.5,2.5-1.3-4.5-1.8-10.6-.9-15.6,5.5-18.4,33.1-14,40.8.7h0ZM319,191.1s0,0,0,0h0c-.2-9.9-5-20.9-13.2-28.6l17.4-8.1c20.6,64.4,22.7,129.3,7,189.7l-24.4-11.3c9.5-8,12.9-18.6,13.1-34.3.1-15.7-17.3-33.1-38.7-33.1-19.6.5-37.1,14.7-38.7,37.5l-60.7-28.2c-3.3-1.5-7,.9-7,4.5v53.1c0,6.7-5.3,12-12,12s-12-5.3-12-12v-52.9c0-6.6-9.9-6.6-9.9,0v19c0,6.7-5.3,12-12,12s-12-5.3-12-12v-28c0,0,0-.1,0-.2,0,0,0,0,0,0-.1-5.6,1.5-11.1,4.4-15.9,3.3-5.1,8-9.2,13.5-11.7l18.4-8.5c4,17.1,19.4,30,37.7,30s38.8-17.4,38.8-38.8c.4-8.3-3.4-17.2-7.7-23.1l20.4-9.5c2.9,25.3,21.2,37,40.6,37.3,19.5.3,36.9-17.1,36.9-38.5h0ZM295.9,167c7.7,5.6,13.1,16.6,13.2,24.1,0,16-12.9,28.9-28.9,28.9-19.6-1.5-29.4-16.7-28.6-32.4l44.3-20.6ZM295.1,180.8c-2.5-2.7-4.8-2.3-6.9-1-2.2,1.6-2.7,4.7-1,6.9,1.4,1.8,2.1,4.2,2.2,5.6,0,5.1-4,9.1-9.1,9.1s-7.4-2.6-8.6-6.1c-.9-2.6-3.7-3.9-6.3-3-2.6.9-3.9,3.7-3,6.3,2.6,7.4,9.7,12.7,17.9,12.7s19-8.6,19-15.8c0-7.3-1.5-11.2-4.1-14.6h0ZM211.8,206.1c4.4,5.1,7,11.6,7,18.9,0,16-12.9,28.9-28.9,28.9s-26.4-10.5-28.5-24.3l50.4-23.4ZM203.2,222.8c-2.7,0-5,2.2-5,4.9,0,4.6-3.7,8.3-8.3,8.3s-5.1-1.3-6.6-3.3c-1.6-2.2-4.7-2.6-6.9-1-2.2,1.6-2.6,4.7-1,6.9,3.3,4.4,8.7,7.3,14.6,7.3,10,0,18.2-8.2,18.2-18.2,0-2.7-2.2-4.9-4.9-4.9h0ZM319.7,225c-3.1,0-5.6,2.5-5.6,5.7,0,3.1,2.5,5.6,5.6,5.6,3.1,0,5.7-2.5,5.7-5.6,0-3.1-2.5-5.7-5.7-5.7ZM246.3,230.6c-3.1,0-5.6,2.5-5.6,5.7,0,3.1,2.5,5.6,5.6,5.6,3.1,0,5.7-2.5,5.7-5.6,0-3.1-2.5-5.7-5.7-5.7ZM285.8,241.9c-3.1,0-5.6,2.5-5.6,5.7,0,3.1,2.5,5.6,5.6,5.6,3.1,0,5.7-2.5,5.7-5.6,0-3.1-2.5-5.7-5.7-5.7ZM325.3,270.1c-3.1,0-5.6,2.5-5.6,5.7,0,3.1,2.5,5.6,5.6,5.6,3.1,0,5.7-2.5,5.7-5.6,0-3.1-2.5-5.7-5.7-5.7ZM223.8,270.1c-3.1,0-5.6,2.5-5.6,5.7,0,3.1,2.5,5.6,5.6,5.6,3.1,0,5.7-2.5,5.7-5.6,0-3.1-2.5-5.7-5.7-5.7ZM309.1,304c-.1,7.5-5.5,18.5-13.2,24.1l-44.3-20.6c-2.4-24.2,17-32,28.8-32.4,15.8,0,28.7,12.8,28.7,28.9h0ZM263.8,297.1c-.9,2.6.5,5.4,3.1,6.3,2.6.9,5.4-.5,6.3-3.1,1-2.9,3.7-5,7-5s7.3,3.2,7.3,7.3c0,1-.7,3.1-1.8,4.6-1.6,2.2-1.2,5.3,1,6.9,2.2,1.7,5.3,1.2,6.9-1,2.3-3.1,3.7-6.7,3.8-13.4,0-6.7-7.7-14.4-16.3-14.4s-15,4.9-17.3,11.7h0ZM183.6,286.8c53.7,25,92.5,43,143.9,66.9-1.3,4.5-2.8,9-4.3,13.5l-139.6-64.9v-15.4Z"/>
  </g>
</svg>